<svg width="15" height="15" viewBox="0 0 15 15" fill="none" xmlns="http://www.w3.org/2000/svg">
<path d="M13.9342 6.20236L13.9345 6.20239C14.0472 6.21254 14.1419 6.28838 14.1766 6.39572L14.6514 6.24223L14.1768 6.39627C14.2118 6.50424 14.1795 6.62167 14.0939 6.69657L14.0935 6.69692L10.8886 9.50702L10.6652 9.70293L10.731 9.99272L11.676 14.1553C11.676 14.1554 11.676 14.1554 11.676 14.1555C11.7011 14.2666 11.6581 14.3805 11.5662 14.4471L11.5662 14.4471C11.4744 14.5137 11.3537 14.5184 11.2582 14.461L11.257 14.4603L7.60104 12.2744L7.345 12.1214L7.08894 12.2744L3.43165 14.4602L3.43142 14.4604C3.38506 14.4881 3.33584 14.501 3.28744 14.501C3.23082 14.501 3.17351 14.4835 3.12251 14.4467C3.03147 14.3809 2.98801 14.2675 3.01326 14.1553C3.01328 14.1552 3.0133 14.1552 3.01331 14.1551L3.95823 9.99272L4.02401 9.70297L3.80062 9.50705L0.595786 6.69639L0.594839 6.69556C0.510561 6.62203 0.47782 6.50477 0.513017 6.39653C0.548142 6.28851 0.6428 6.21284 0.755546 6.20231C0.755641 6.2023 0.755736 6.20229 0.755831 6.20228L4.99555 5.81737L5.29226 5.79044L5.40933 5.51647L7.08563 1.59359C7.08566 1.59353 7.08568 1.59347 7.08571 1.59341C7.13108 1.48783 7.23273 1.42152 7.34495 1.42152C7.4573 1.42152 7.559 1.48797 7.60429 1.59295C7.60434 1.59307 7.60439 1.59319 7.60444 1.59331L9.28057 5.51644L9.39762 5.79043L9.69435 5.81737L13.9342 6.20236Z" stroke="#FFC107" stroke-width="0.998073"/>
</svg>
